<svg width="1218" height="155" viewBox="0 0 1218 155" fill="none" xmlns="http://www.w3.org/2000/svg">
<path d="M45.5458 27.448H28.2658V72.376H45.9778C54.3298 72.376 61.2418 70.72 66.7138 67.408C72.1858 63.952 74.9218 58.336 74.9218 50.56C74.9218 42.352 72.3298 36.448 67.1458 32.848C61.9618 29.248 54.7618 27.448 45.5458 27.448ZM85.7218 151L54.6178 94.84C53.0338 94.984 51.3778 95.128 49.6498 95.272C47.9218 95.272 46.1938 95.272 44.4658 95.272H28.2658V151H0.401814V4.12H46.4098C62.3938 4.12 76.0738 7.792 87.4498 15.136C98.8258 22.48 104.514 33.856 104.514 49.264C104.514 58.336 102.138 66.184 97.3858 72.808C92.7778 79.288 86.8018 84.328 79.4578 87.928L115.53 151H85.7218ZM214.735 4.12V151H186.871V4.12H214.735ZM285.194 4.12H403.994L408.53 26.152H358.202V151H329.906V26.152H285.194V4.12ZM472.976 78.208C472.976 55.6 478.88 37.168 490.688 22.912C502.496 8.51199 519.128 1.09599 540.584 0.663991C563.624 0.663991 580.688 8.07999 591.776 22.912C602.864 37.744 608.408 55.672 608.408 76.696C608.408 99.448 602.432 117.952 590.48 132.208C578.672 146.32 562.04 153.592 540.584 154.024C517.688 154.024 500.696 146.68 489.608 131.992C478.52 117.16 472.976 99.232 472.976 78.208ZM502.136 77.992C502.136 93.4 505.232 106 511.424 115.792C517.616 125.584 527.264 130.48 540.368 130.48C552.176 130.48 561.608 126.088 568.664 117.304C575.72 108.52 579.248 94.984 579.248 76.696C579.248 61.432 576.152 48.904 569.96 39.112C563.768 29.32 554.12 24.424 541.016 24.424C529.496 24.424 520.136 29.248 512.936 38.896C505.736 48.544 502.136 61.576 502.136 77.992ZM735.101 27.448H717.821V72.376H735.533C743.885 72.376 750.797 70.72 756.269 67.408C761.741 63.952 764.477 58.336 764.477 50.56C764.477 42.352 761.885 36.448 756.701 32.848C751.517 29.248 744.317 27.448 735.101 27.448ZM775.277 151L744.173 94.84C742.589 94.984 740.933 95.128 739.205 95.272C737.477 95.272 735.749 95.272 734.021 95.272H717.821V151H689.957V4.12H735.965C751.949 4.12 765.629 7.792 777.005 15.136C788.381 22.48 794.069 33.856 794.069 49.264C794.069 58.336 791.693 66.184 786.941 72.808C782.333 79.288 776.357 84.328 769.013 87.928L805.085 151H775.277ZM1000.41 4.12V151H972.329L904.289 52.72V151H876.425V4.12H904.289L972.329 102.184V4.12H1000.41ZM1081.95 78.208C1081.95 55.6 1087.86 37.168 1099.66 22.912C1111.47 8.51199 1128.1 1.09599 1149.56 0.663991C1172.6 0.663991 1189.66 8.07999 1200.75 22.912C1211.84 37.744 1217.38 55.672 1217.38 76.696C1217.38 99.448 1211.41 117.952 1199.46 132.208C1187.65 146.32 1171.02 153.592 1149.56 154.024C1126.66 154.024 1109.67 146.68 1098.58 131.992C1087.5 117.16 1081.95 99.232 1081.95 78.208ZM1111.11 77.992C1111.11 93.4 1114.21 106 1120.4 115.792C1126.59 125.584 1136.24 130.48 1149.34 130.48C1161.15 130.48 1170.58 126.088 1177.64 117.304C1184.7 108.52 1188.22 94.984 1188.22 76.696C1188.22 61.432 1185.13 48.904 1178.94 39.112C1172.74 29.32 1163.1 24.424 1149.99 24.424C1138.47 24.424 1129.11 29.248 1121.91 38.896C1114.71 48.544 1111.11 61.576 1111.11 77.992Z" fill="#F64128"/>
</svg>
